# xmcd
#
# Track frame offsets:
#	150
#	8986
#	25088
#	38401
#	60056
#	102963
#	129210
#	144175
#	161912
#	177353
#	212623
#	242362
#	271139
#
# Disc length: 4103 seconds
#
# Revision: 0
# Processed by: cddbd v1.5.2PL0 Copyright (c) Steve Scherf et al.
# Submitted via: EZCDAudioConverter 7.0.6.1
#
DISCID=9610050d
DTITLE=Jackie Shane - Any Other Way 2/2
DYEAR=1900
DGENRE=
TTITLE0=Introduction/Dual Trumpet Bounce
TTITLE1=High Heel Sneakers
TTITLE2=Barefootin'
TTITLE3=Knock On Wood
TTITLE4=Money (That's What I Want)
TTITLE5=Raindrops
TTITLE6=You're The One (That I Need)
TTITLE7=Don't Play That Song (You Lied)
TTITLE8=Papa's Got A Brand New Bag
TTITLE9=Any Other Way
TTITLE10=You Are My Sunshine
TTITLE11=I Don't Want To Cry
TTITLE12=Shotgun
EXTD=
EXTT0=
EXTT1=
EXTT2=
EXTT3=
EXTT4=
EXTT5=
EXTT6=
EXTT7=
EXTT8=
EXTT9=
EXTT10=
EXTT11=
EXTT12=
PLAYORDER=
